<svg xmlns="http://www.w3.org/2000/svg" width="340" height="116" viewBox="0 0 340 116" role="img" aria-labelledby="stamp-title stamp-desc">
    <title id="stamp-title">As dispached QA stamp</title>
    <desc id="stamp-desc">Distressed blue rectangular stamp reading AS DISPACHED.</desc>
    <defs>
        <filter id="soft-ink" x="-8%" y="-14%" width="116%" height="128%">
            <feTurbulence type="fractalNoise" baseFrequency="0.82" numOctaves="2" seed="41" result="noise"/>
            <feDisplacementMap in="SourceGraphic" in2="noise" scale="1.05" xChannelSelector="R" yChannelSelector="G"/>
        </filter>
        <mask id="stamp-wear" maskUnits="userSpaceOnUse">
            <rect width="340" height="116" fill="#fff"/>
            <g fill="#000" opacity=".84">
                <path d="M29 32h55v6H29zM129 28h38v5h-38zM202 39h48v6h-48z" transform="rotate(7 143 56)"/>
                <path d="M22 66h42v4H22zM91 75h63v5H91zM181 69h64v5h-64zM237 83h24v4h-24z" transform="rotate(7 143 56)"/>
                <path d="M44 91h43v4H44zM126 94h34v3h-34zM198 88h52v5h-52z" transform="rotate(7 143 56)"/>
                <ellipse cx="58" cy="48" rx="8" ry="3" transform="rotate(-14 58 48)"/>
                <ellipse cx="118" cy="43" rx="12" ry="2.7" transform="rotate(9 118 43)"/>
                <ellipse cx="171" cy="59" rx="9" ry="3.3" transform="rotate(-11 171 59)"/>
                <ellipse cx="229" cy="55" rx="13" ry="3" transform="rotate(15 229 55)"/>
                <ellipse cx="103" cy="84" rx="10" ry="3.2" transform="rotate(-13 103 84)"/>
                <ellipse cx="215" cy="88" rx="8" ry="2.8" transform="rotate(7 215 88)"/>
            </g>
            <g fill="#000" opacity=".18">
                <path d="M34 21l23-3 2 3-22 4zM73 99l36-5 1 3-36 6zM169 18l51-4 1 3-51 5zM211 99l39-6 1 3-39 6z"/>
                <path d="M23 50l238-31 1 2L24 53zM31 61l219-27 1 2L32 64zM42 74l197-22 1 2L43 77z"/>
            </g>
        </mask>
    </defs>
    <g transform="rotate(7 170 58)" mask="url(#stamp-wear)" filter="url(#soft-ink)" fill="none" stroke="#9cc4ff" stroke-linejoin="round" stroke-linecap="round">
        <rect x="12" y="22" width="316" height="68" rx="3" stroke-width="7"/>
        <rect x="25" y="34" width="290" height="44" rx="1.5" stroke-width="2.5" opacity=".46"/>
        <text x="170" y="67"
              fill="#9cc4ff"
              stroke="none"
              text-anchor="middle"
              font-family="Rockwell, 'Roboto Slab', Georgia, serif"
              font-size="35"
              font-weight="900"
              letter-spacing="1.4">AS DISPACHED</text>
        <path d="M35 84c47 5 83 5 123 2 48-3 96-2 145 2" stroke-width="2" opacity=".22"/>
        <path d="M39 30c39-4 84-5 128-2 43 3 88 2 130-2" stroke-width="1.8" opacity=".18"/>
    </g>
</svg>
